<svg xmlns="http://www.w3.org/2000/svg" width="1224.26" height="926.265" viewBox="0 0 1224.26 926.265"><g transform="translate(1080) rotate(90)"><path d="M 925.7645874023438 1079.5 L 1.194965124130249 1079.5 C 6.069564819335938 1074.55224609375 31.82338523864746 1048.371459960938 70.65242004394531 1008.169677734375 C 110.3862609863281 967.0308837890625 172.3267211914062 902.3793334960938 241.7665710449219 828.0025634765625 C 319.8156433105469 744.4046020507812 391.236572265625 665.8113403320312 454.0455017089844 594.4061279296875 C 491.3391723632812 552.00830078125 525.9718017578125 511.7061157226562 556.981201171875 474.6190490722656 C 591.093017578125 433.8218078613281 621.66259765625 395.9075012207031 647.8408813476562 361.9293518066406 C 674.0210571289062 327.9484252929688 699.26318359375 293.1031799316406 722.865966796875 258.3613586425781 C 744.3233642578125 226.7774963378906 764.9088745117188 194.5691986083984 784.0505981445312 162.6311950683594 C 816.2899780273438 108.8396530151367 845.0827026367188 54.81027221679688 869.6292114257812 2.043655633926392 C 879.2728881835938 -18.68696022033691 888.2762451171875 -39.27019119262695 896.38916015625 -59.13434600830078 C 902.8799438476562 -75.02664947509766 908.8185424804688 -90.49696350097656 914.040283203125 -105.1157302856445 C 920.38818359375 -122.8876342773438 924.1295776367188 -135.0968475341797 925.7645874023438 -140.6795959472656 L 925.7645874023438 1079.5 Z" stroke="none"/><path d="M 925.2645874023438 -137.251953125 C 923.3060913085938 -130.78271484375 919.8187255859375 -119.806884765625 914.5111694335938 -104.9476318359375 C 909.2870483398438 -90.32177734375 903.3456420898438 -74.8443603515625 896.8521118164062 -58.94525146484375 C 888.736083984375 -39.0738525390625 879.7294921875 -18.4832763671875 870.0825805664062 2.25457763671875 C 845.5287475585938 55.036865234375 816.7276611328125 109.081787109375 784.4793701171875 162.8882446289062 C 765.3328857421875 194.8344116210938 744.7422485351562 227.0507202148438 723.2794799804688 258.6422729492188 C 699.6712036132812 293.3923950195312 674.4232177734375 328.2457885742188 648.2368774414062 362.2344360351562 C 622.0545654296875 396.2178344726562 591.4808349609375 434.1373596191406 557.36474609375 474.9398193359375 C 526.3525390625 512.0299682617188 491.7173461914062 552.3353271484375 454.4208679199219 594.7362670898438 C 391.6087036132812 666.1452026367188 320.1843872070312 744.7421264648438 242.1319580078125 828.3438110351562 C 172.6898193359375 902.7232055664062 110.7471923828125 967.376708984375 71.011962890625 1008.516906738281 C 34.0313720703125 1046.80517578125 8.90985107421875 1072.376342773438 2.3892822265625 1079 L 925.2645874023438 1079 L 925.2645874023438 -137.251953125 M 926.2645874023438 -144.259765625 L 926.2645874023438 1080 L -6.103515625e-05 1080 C -6.103515625e-05 1080 427.9213256835938 646.5556640625 647.4447021484375 361.6241455078125 C 866.9677734375 76.69244384765625 926.2645874023438 -144.259765625 926.2645874023438 -144.259765625 Z" stroke="none" fill="#a20000"/></g></svg>