<svg xmlns="http://www.w3.org/2000/svg" width="1219.078" height="1086.688" viewBox="0 0 1219.078 1086.688"><g transform="translate(312.078 1468) rotate(-90)"><path d="M 1467.19580078125 906.4999389648438 L 381.8445434570312 906.4999389648438 C 382.090576171875 902.6260986328125 383.7230834960938 877.816162109375 387.5467529296875 838.8185424804688 C 389.9850463867188 813.9505615234375 392.8241271972656 788.264892578125 395.9848937988281 762.474853515625 C 399.9359741210938 730.23779296875 404.4039611816406 697.74609375 409.2647399902344 665.9024047851562 C 421.6373596191406 584.8477783203125 436.5981140136719 507.4508666992188 453.7318115234375 435.8614807128906 C 463.9044494628906 393.3574829101562 474.9661254882812 352.4548645019531 486.6095275878906 314.2899475097656 C 492.8675231933594 293.7771911621094 499.4178161621094 273.6505737304688 506.0785827636719 254.4691772460938 C 513.0416870117188 234.4165649414062 520.3190307617188 214.8401031494141 527.7081298828125 196.2833404541016 C 535.0970458984375 177.7276458740234 543.1049194335938 158.9179534912109 551.5092163085938 140.3768768310547 C 559.5484619140625 122.6416473388672 568.1641235351562 104.6807250976562 577.1170654296875 86.99318695068359 C 593.7739868164062 54.08518600463867 612.2084350585938 20.91118431091309 631.908447265625 -11.60758495330811 C 665.0884399414062 -66.37804412841797 702.4253540039062 -120.3258895874023 742.8821411132812 -171.9526672363281 C 758.7763061523438 -192.2351226806641 775.1961059570312 -212.2035827636719 791.6854858398438 -231.3034362792969 C 804.877197265625 -246.5835876464844 818.142578125 -261.344970703125 831.113525390625 -275.1778869628906 C 850.8718872070312 -296.2493286132812 863.957763671875 -308.7581481933594 866.59326171875 -311.2508850097656 L 1467.19580078125 906.4999389648438 Z" stroke="none"/><path d="M 866.445068359375 -310.4208984375 C 862.9346923828125 -307.0823974609375 850.2000732421875 -294.8025512695312 831.4650268554688 -274.8215942382812 C 818.4981689453125 -260.99267578125 805.2369384765625 -246.2352905273438 792.04931640625 -230.9595947265625 C 775.5653076171875 -211.8654174804688 759.15087890625 -191.9029541015625 743.261962890625 -171.6266479492188 C 702.81982421875 -120.0171508789062 665.4964599609375 -66.08758544921875 632.3287353515625 -11.33636474609375 C 612.63671875 21.16998291015625 594.2098388671875 54.3310546875 577.5596923828125 87.22579956054688 C 568.6107177734375 104.9059448242188 559.998779296875 122.8591918945312 551.9630126953125 140.5868835449219 C 543.5623779296875 159.1198120117188 535.55810546875 177.9210205078125 528.1727294921875 196.4684143066406 C 520.786376953125 215.0177917480469 513.511962890625 234.5867309570312 506.5513916015625 254.6316528320312 C 499.8929443359375 273.8065795898438 493.3447265625 293.9265747070312 487.088623046875 314.4327087402344 C 475.448486328125 352.5870361328125 464.3897705078125 393.4785766601562 454.2197265625 435.9716491699219 C 437.08935546875 507.5461120605469 422.1312255859375 584.9277954101562 409.7607421875 665.967041015625 C 404.900634765625 697.8056640625 400.4332275390625 730.292236328125 396.4825439453125 762.5244140625 C 393.3221435546875 788.3107299804688 390.4833984375 813.9928588867188 388.04541015625 838.8574829101562 C 384.366943359375 876.3719482421875 382.716552734375 900.7557983398438 382.3775634765625 905.9999389648438 L 1466.391723632812 905.9999389648438 L 866.445068359375 -310.4208984375 M 866.7427368164062 -312.0781860351562 L 1468 906.9999389648438 L 381.312255859375 906.9999389648438 C 381.312255859375 906.9999389648438 405.885986328125 500.8679504394531 527.24365234375 196.0984191894531 C 648.601318359375 -108.671142578125 866.7427368164062 -312.0781860351562 866.7427368164062 -312.0781860351562 Z" stroke="none" fill="#840000"/></g></svg>