<svg xmlns="http://www.w3.org/2000/svg" width="397.108" height="617" viewBox="0 0 397.108 617">
  <g id="Path_25" data-name="Path 25" transform="translate(-84.892 900.342) rotate(-90)">
    <path d="M 898.8740844726562 481.5000305175781 L 283.8804626464844 481.5000305175781 C 284.1863098144531 477.4630737304688 286.2668151855469 451.0556335449219 290.9791259765625 414.6088256835938 C 293.975341796875 391.4347229003906 297.4334411621094 368.7967224121094 301.2575073242188 347.32373046875 C 306.0369567871094 320.4854431152344 311.4045715332031 295.4022827148438 317.2113647460938 272.7709045410156 C 323.017822265625 250.1407318115234 330.2301940917969 226.1938171386719 338.6481323242188 201.5953521728516 C 345.3831176757812 181.9146575927734 352.9005126953125 161.7753601074219 360.9913635253906 141.7368927001953 C 373.5674438476562 110.5902404785156 383.6675415039062 89.30617523193359 385.4143981933594 85.66448974609375 L 898.8740844726562 481.5000305175781 Z" stroke="none"/>
    <path d="M 385.5987548828125 86.43783569335938 C 383.2614135742188 91.33657836914062 373.4916381835938 112.112548828125 361.4512939453125 141.9331970214844 C 353.3643798828125 161.9623413085938 345.8507080078125 182.092041015625 339.119140625 201.7631225585938 C 330.706298828125 226.3471069335938 323.4984130859375 250.2794189453125 317.6956787109375 272.8952026367188 C 311.892333984375 295.51318359375 306.5276489257812 320.58251953125 301.75048828125 347.4067993164062 C 297.9280395507812 368.8710327148438 294.4711303710938 391.5001220703125 291.4759521484375 414.6654357910156 C 286.9383544921875 449.7596740722656 284.8416748046875 475.5431213378906 284.4202270507812 480.9999694824219 L 897.4066162109375 480.9999694824219 L 385.5987548828125 86.43783569335938 M 385.2315063476562 84.89205932617188 L 900.3416748046875 481.9999694824219 L 283.341796875 481.9999694824219 C 283.341796875 481.9999694824219 291.2545776367188 371.9236450195312 316.72705078125 272.6466674804688 C 342.1994018554688 173.3697509765625 385.2315063476562 84.89205932617188 385.2315063476562 84.89205932617188 Z" stroke="none" fill="#a20000"/>
  </g>
</svg>
