<svg xmlns="http://www.w3.org/2000/svg" width="976.787" height="341.717" viewBox="0 0 976.787 341.717">
<style>
  .wave-path {fill: none; stroke: #a20000; stroke-linecap: round; stroke-width: 5;}
</style>
  <g id="Group_12" data-name="Group 12" transform="translate(3.502 -239.965)">
    <path class="wave-path" id="Path_1" data-name="Path 1" d="M0,194.679S282.173-18.96,525.6,89.165,969.75,0,969.75,0" transform="translate(0 243.5)"/>
    <path class="wave-path" id="Path_5" data-name="Path 5" d="M0,194.679S282.173-18.96,525.6,89.165,969.75,0,969.75,0" transform="translate(0 253.5)"/>
    <path class="wave-path" id="Path_6" data-name="Path 6" d="M0,194.679S282.173-18.96,525.6,89.165,969.75,0,969.75,0" transform="translate(0 263.5)"/>
    <path class="wave-path" id="Path_7" data-name="Path 7" d="M0,194.679S282.173-18.96,525.6,89.165,969.75,0,969.75,0" transform="translate(0 273.5)"/>
    <path class="wave-path" id="Path_8" data-name="Path 8" d="M0,194.679S282.173-18.96,525.6,89.165,969.75,0,969.75,0" transform="translate(0 283.5)"/>
    <path class="wave-path" id="Path_9" data-name="Path 9" d="M0,194.679S282.173-18.96,525.6,89.165,969.75,0,969.75,0" transform="translate(0 293.5)"/>
    <path class="wave-path" id="Path_10" data-name="Path 10" d="M0,194.679S282.173-18.96,525.6,89.165,969.75,0,969.75,0" transform="translate(0 303.5)"/>
    <path class="wave-path" id="Path_11" data-name="Path 11" d="M0,194.679S282.173-18.96,525.6,89.165,969.75,0,969.75,0" transform="translate(0 313.5)"/>
    <path class="wave-path" id="Path_12" data-name="Path 12" d="M0,194.679S282.173-18.96,525.6,89.165,969.75,0,969.75,0" transform="translate(0 323.5)"/>
    <path class="wave-path" id="Path_13" data-name="Path 13" d="M0,194.679S282.173-18.96,525.6,89.165,969.75,0,969.75,0" transform="translate(0 333.5)"/>
    <path class="wave-path" id="Path_14" data-name="Path 14" d="M0,194.679S282.173-18.96,525.6,89.165,969.75,0,969.75,0" transform="translate(0 343.5)"/>
    <path class="wave-path" id="Path_15" data-name="Path 15" d="M0,194.679S282.173-18.96,525.6,89.165,969.75,0,969.75,0" transform="translate(0 353.5)"/>
    <path class="wave-path" id="Path_16" data-name="Path 16" d="M0,194.679S282.173-18.96,525.6,89.165,969.75,0,969.75,0" transform="translate(0 363.5)"/>
    <path class="wave-path" id="Path_17" data-name="Path 17" d="M0,194.679S282.173-18.96,525.6,89.165,969.75,0,969.75,0" transform="translate(0 373.5)"/>
    <path class="wave-path" id="Path_24" data-name="Path 24" d="M0,194.679S282.173-18.96,525.6,89.165,969.75,0,969.75,0" transform="translate(0 383.5)"/>
  </g>
</svg>
